<svg id="Layer_1" data-name="Layer 1" xmlns="http://www.w3.org/2000/svg" viewBox="0 0 120.39 122.88"><title>24-hour</title><path d="M110.82,30a4.54,4.54,0,0,0-7.63,4.91,50.2,50.2,0,0,1,3.92,7.34,4.53,4.53,0,0,0,8.32-3.61A59.17,59.17,0,0,0,110.82,30ZM31.07,81.65V73.82l11.73-12a20.88,20.88,0,0,0,1.88-2.08,9.8,9.8,0,0,0,1.2-1.88A4.31,4.31,0,0,0,46.31,56a3.41,3.41,0,0,0-.41-1.75,2.25,2.25,0,0,0-1.24-1,6.5,6.5,0,0,0-2.16-.31H31.68V45.12q2.49-.55,5.56-1a46.81,46.81,0,0,1,7.14-.48,16.58,16.58,0,0,1,7,1.22,7.28,7.28,0,0,1,3.65,3.6,14,14,0,0,1,1.09,5.85,14.6,14.6,0,0,1-.66,4.52,14.45,14.45,0,0,1-1.9,3.81,27.18,27.18,0,0,1-3,3.55l-6.5,6.66h13.1v8.84Zm46.66,0v-7H62L60.3,70.27,71.23,43.9h10L72,66.36h5.69V60.77l1.88-4.88h8V66.36h3v6.8l-3,1.53v7Zm25.2-65.24a5.51,5.51,0,0,1,.33,1.57,5.05,5.05,0,0,1-3.52,5.62L86.27,27.72a5,5,0,0,1-2.92-9.65l1.28-.39a50.55,50.55,0,0,0-10.19-4.19A51.17,51.17,0,1,0,60.22,113.81a35.52,35.52,0,0,0,4-.13,48,48,0,0,0,5.73-.75,4.54,4.54,0,1,1,1.7,8.91,59.3,59.3,0,0,1-6.78.88c-.69,0-3.91.16-4.63.16A60.23,60.23,0,1,1,89.71,10.16l-1.26-3.3a5.06,5.06,0,1,1,9.45-3.6l5,13.15Zm-17.4,90.85a4.53,4.53,0,0,0,4.45,7.9,55.69,55.69,0,0,0,8.12-5.5,4.54,4.54,0,1,0-5.7-7.06,46.89,46.89,0,0,1-6.87,4.66Zm17.87-17a4.53,4.53,0,1,0,7.69,4.8,61.14,61.14,0,0,0,4.51-8.69,4.54,4.54,0,1,0-8.37-3.5,51.73,51.73,0,0,1-3.83,7.39Zm7.77-23.54a4.53,4.53,0,0,0,9,.7,61.54,61.54,0,0,0,0-9.79,4.54,4.54,0,1,0-9,.76,52.65,52.65,0,0,1,0,8.33Z"/></svg>