<svg id="Layer_1" data-name="Layer 1" xmlns="http://www.w3.org/2000/svg" viewBox="0 0 122.88 50.12"><title>send-message</title><path d="M54.86,0h63.69a4.29,4.29,0,0,1,4.32,4.67l-3.09,40.78a5,5,0,0,1-3.45,4.4,4.89,4.89,0,0,1-1.57.27H51.07a4.29,4.29,0,0,1-4.32-4.67L49.84,4.67a5.13,5.13,0,0,1,5-4.67ZM39.2,6v5.24H2.62A2.62,2.62,0,1,1,2.62,6Zm-3,32.88v5.23H21.91a2.62,2.62,0,1,1,0-5.23Zm1.5-16.44v5.23H11.47a2.62,2.62,0,1,1,0-5.23Zm13.52,20L73.65,22.88,53.89,7.21,51.23,42.46ZM76.77,25.55,53.57,45.87h59.19L93.6,25.57l-7.33,5.87a2.26,2.26,0,0,1-1.38.49,2,2,0,0,1-1.32-.47l-6.8-5.91Zm20.29-2.72L115.75,42.6,118.44,7,97.06,22.83ZM57.2,4.25l28,22.82L115.39,4.25Z"/></svg>